<?xml version="1.0" encoding="UTF-8"?>
<svg width="117px" height="22px" viewBox="0 0 117 22" version="1.1" xmlns="http://www.w3.org/2000/svg" xmlns:xlink="http://www.w3.org/1999/xlink">
    <title>Combined Shape</title>
    <g id="Desktop-View" stroke="none" stroke-width="1" fill="none" fill-rule="evenodd">
        <g id="Artboard" transform="translate(-145.000000, -24.000000)" fill="#000000" fill-rule="nonzero">
            <path d="M154.876056,24 C160.468025,24 164.752112,27.9339451 164.752112,34.8337965 C164.752112,41.7336479 160.468025,45.667593 154.876056,45.667593 C149.253192,45.667593 145,41.702753 145,34.8337965 C145,27.9339451 149.253192,24 154.876056,24 Z M259.238989,40.7244159 C260.557169,40.7244159 261.700279,41.8263324 261.710577,43.1754078 C261.700279,44.5450798 260.557169,45.6469964 259.238989,45.6469964 C257.879615,45.6469964 256.757102,44.5450798 256.7674,43.1754078 C256.757102,41.8263324 257.879615,40.7244159 259.238989,40.7244159 Z M171.960933,24.288352 L181.064618,37.5525439 L181.249987,37.5525439 L181.249987,24.288352 L185.688548,24.288352 L185.688548,45.379241 L181.836989,45.379241 L172.661217,32.1047508 L172.506743,32.1047508 L172.506743,45.379241 L168.047585,45.379241 L168.047585,24.288352 L171.960933,24.288352 Z M196.903402,24.288352 C203.267742,24.288352 207.160494,28.2428937 207.160494,34.8131999 C207.160494,41.4041027 203.267742,45.379241 196.841612,45.379241 L196.841612,45.379241 L189.365056,45.379241 L189.365056,24.288352 Z M215.95525,24.288352 L221.763483,38.458793 L222.010642,38.458793 L227.818875,24.288352 L233.31816,24.288352 L233.31816,45.379241 L228.99288,45.379241 L228.99288,31.6516262 L228.817809,31.6516262 L223.359717,45.2762581 L220.414408,45.2762581 L214.956316,31.6001348 L214.781246,31.6001348 L214.781246,45.379241 L210.455966,45.379241 L210.455966,24.288352 L215.95525,24.288352 Z M244.52272,24.288352 C250.88706,24.288352 254.779812,28.2428937 254.779812,34.8131999 C254.779812,41.4041027 250.88706,45.379241 244.46093,45.379241 L244.46093,45.379241 L236.984375,45.379241 L236.984375,24.288352 Z M154.876056,27.9442434 C151.632096,27.9442434 149.520947,30.3643405 149.520947,34.8337965 C149.520947,39.3032525 151.632096,41.7233496 154.876056,41.7233496 C158.109718,41.7233496 160.231164,39.3032525 160.231164,34.8337965 C160.231164,30.3643405 158.109718,27.9442434 154.876056,27.9442434 Z M196.666541,28.109016 L193.824214,28.109016 L193.824214,41.558577 L196.656243,41.558577 C200.621083,41.558577 202.711635,39.5195164 202.711635,34.8131999 C202.711635,30.12748 200.621083,28.109016 196.666541,28.109016 L196.666541,28.109016 Z M244.285859,28.109016 L241.443532,28.109016 L241.443532,41.558577 L244.275561,41.558577 C248.240401,41.558577 250.330953,39.5195164 250.330953,34.8131999 C250.330953,30.12748 248.240401,28.109016 244.285859,28.109016 L244.285859,28.109016 Z" id="Combined-Shape"></path>
        </g>
    </g>
</svg>