<?xml version="1.0" encoding="UTF-8"?>
<svg width="20px" height="20px" viewBox="0 0 20 20" version="1.1" xmlns="http://www.w3.org/2000/svg" xmlns:xlink="http://www.w3.org/1999/xlink">
    <g stroke="none" stroke-width="1" fill="none" fill-rule="evenodd">
        <g transform="translate(-704.000000, -217.000000)" fill-rule="nonzero">
            <g transform="translate(640.000000, 199.000000)">
                <g transform="translate(60.000000, 14.000000)">
                    <g transform="translate(4.000000, 4.000000)">
                        <path d="M19.575,10.225 C19.575,9.56666667 19.5166667,8.94166667 19.4166667,8.33333333 L10,8.33333333 L10,12.0916667 L15.3916667,12.0916667 C15.15,13.325 14.4416667,14.3666667 13.3916667,15.075 L13.3916667,17.575 L16.6083333,17.575 C18.4916667,15.8333333 19.575,13.2666667 19.575,10.225 Z" fill="#4285F4"></path>
                        <path d="M10,20 C12.7,20 14.9583333,19.1 16.6083333,17.575 L13.3916667,15.075 C12.4916667,15.675 11.35,16.0416667 10,16.0416667 C7.39166667,16.0416667 5.18333333,14.2833333 4.39166667,11.9083333 L1.075,11.9083333 L1.075,14.4833333 C2.71666667,17.75 6.09166667,20 10,20 Z" fill="#34A853"></path>
                        <path d="M4.39166667,11.9083333 C4.18333333,11.3083333 4.075,10.6666667 4.075,10 C4.075,9.33333333 4.19166667,8.69166667 4.39166667,8.09166667 L4.39166667,5.51666667 L1.075,5.51666667 C0.391666667,6.86666667 -3.22704826e-13,8.38333333 -3.22704826e-13,10 C-3.22704826e-13,11.6166667 0.391666667,13.1333333 1.075,14.4833333 L4.39166667,11.9083333 Z" fill="#FBBC05"></path>
                        <path d="M10,3.95833333 C11.475,3.95833333 12.7916667,4.46666667 13.8333333,5.45833333 L16.6833333,2.60833333 C14.9583333,0.991666667 12.7,1.52964061e-14 10,1.52964061e-14 C6.09166667,1.52964061e-14 2.71666667,2.25 1.075,5.51666667 L4.39166667,8.09166667 C5.18333333,5.71666667 7.39166667,3.95833333 10,3.95833333 Z" fill="#EA4335"></path>
                    </g>
                </g>
            </g>
        </g>
    </g>
</svg>