<?xml version="1.0" encoding="UTF-8"?>
<svg width="23px" height="18px" viewBox="0 0 23 18" version="1.1" xmlns="http://www.w3.org/2000/svg" xmlns:xlink="http://www.w3.org/1999/xlink">
    <title>Shape</title>
    <g id="Desktop-View" stroke="none" stroke-width="1" fill="none" fill-rule="evenodd">
        <g id="Artboard" transform="translate(-735.000000, -518.000000)" fill="#FFFFFF" fill-rule="nonzero">
            <g id="Group-12" transform="translate(640.000000, 199.000000)">
                <g id="Group-10" transform="translate(0.000000, 299.000000)">
                    <g id="Group-6" transform="translate(95.000000, 18.000000)">
                        <path d="M19.125,2 L3.375,2 C1.51103897,2 0,3.51103897 0,5.375 L0,16.625 C0,18.488961 1.51103897,20 3.375,20 L19.125,20 C20.988961,20 22.5,18.488961 22.5,16.625 L22.5,5.375 C22.5,3.51103897 20.988961,2 19.125,2 Z M3.375,4.25 L19.125,4.25 C19.7463203,4.25 20.25,4.75367966 20.25,5.375 L11.25,10.865 L2.25,5.375 C2.25,4.75367966 2.75367966,4.25 3.375,4.25 Z M20.25,16.625 C20.25,17.2463203 19.7463203,17.75 19.125,17.75 L3.375,17.75 C2.75367966,17.75 2.25,17.2463203 2.25,16.625 L2.25,7.94 L10.665,13.08125 C11.0130762,13.2822119 11.4419238,13.2822119 11.79,13.08125 L20.25,7.94 L20.25,16.625 Z" id="Shape"></path>
                    </g>
                </g>
            </g>
        </g>
    </g>
</svg>